<?xml version="1.0" encoding="UTF-8"?>
<svg id="Layer_2" data-name="Layer 2" xmlns="http://www.w3.org/2000/svg" xmlns:xlink="http://www.w3.org/1999/xlink" viewBox="0 0 464 512">
  <defs>
    <style>
      .cls-1 {
        fill: url(#linear-gradient);
      }

      .cls-1, .cls-2, .cls-3, .cls-4, .cls-5, .cls-6 {
        stroke-width: 0px;
      }

      .cls-2 {
        fill: #105236;
      }

      .cls-3 {
        fill: #f385b3;
      }

      .cls-4 {
        fill: #28cd88;
      }

      .cls-5 {
        fill: #20a46d;
      }

      .cls-6 {
        fill: #1c905f;
      }
    </style>
    <linearGradient id="linear-gradient" x1="25.26" y1="383.74" x2="235.36" y2="609.2" gradientUnits="userSpaceOnUse">
      <stop offset=".32" stop-color="#f066a0"/>
      <stop offset=".58" stop-color="#f066a0"/>
    </linearGradient>
  </defs>
  <g id="Layer_1-2" data-name="Layer 1">
    <g>
      <path class="cls-2" d="m381.12,347.46c-.61.61-1.25,1.21-1.93,1.78l-108.84,62.82-45.53,26.29-7.14,4.1-34.51,19.91c21.34-12.31,34.51-35.07,34.51-59.71v-165.34c0-23.47,25.41-38.13,45.71-26.4l3.14,1.82,9.81,5.6,95.24,54.93c3.93,2.28,7.35,4.96,10.28,7.99,17.88,18.26,17.63,48.26-.75,66.21Z"/>
      <path class="cls-2" d="m158.01,35.18l-42.96-24.79c-.39-.21-.75-.43-1.14-.61-1.11-.64-2.18-1.21-3.28-1.75C60.31-17.01,0,19.45,0,76.77v355.36c0,.57,0,1.11.04,1.64.78-41.63,34.83-75.16,76.68-75.16,12.17,0,23.69,2.85,33.9,7.88V111.29c0-31.72,24.46-58.9,56.16-60.32,11.04-.49,21.46,2.03,30.48,6.9l-29.55-17.09-9.71-5.6Z"/>
      <path class="cls-5" d="m167.73,158.22v313.09l-7.78,4.49-42.14,24.33c-.11.07-.25.14-.36.18,5.25-3.28,10.06-7.17,14.34-11.63,5.53-5.71,10.17-12.24,13.7-19.41.64-1.28,1.25-2.6,1.82-3.92,3.96-9.24,6.14-19.41,6.14-30.07,0-8.49-1.39-16.66-3.93-24.29-.57-1.68-1.18-3.35-1.86-4.96v-.04c-1.39-3.28-2.96-6.42-4.71-9.45-1.36-2.28-2.82-4.49-4.39-6.63-1.57-2.1-3.21-4.14-5-6.06,0,0,.04-.04,0-.04-6.49-7.1-14.24-12.98-22.94-17.3v-162.38c0-20.51,12.6-36.67,29.19-43.52,2.11-.86,4.28-1.57,6.49-2.14,5.53-1.36,11.35-1.75,17.2-1,1.39.18,2.82.39,4.21.75Z"/>
      <path class="cls-4" d="m425.65,322.46l-29.65,17.12s0,.04-.04.04l-16.77,9.67c.68-.57,1.32-1.18,1.93-1.82,18.38-17.94,18.63-47.94.75-66.21-2.93-3-6.35-5.71-10.28-7.95l-95.24-54.93-9.81-5.64-3.14-1.82-45.71-26.36-1.28-.75-30.33-17.52-4.92-2.85c-4.35-2.5-8.89-4.24-13.42-5.21-1.39-.36-2.82-.57-4.21-.75-5.85-.75-11.67-.36-17.2,1-2.21.57-4.39,1.28-6.49,2.14-16.59,6.85-29.19,23.01-29.19,43.52v-94.35c0-24.58,15.09-45.66,36.54-54.44,1.61-.64,3.21-1.25,4.85-1.78,1.82-.57,3.71-1.03,5.64-1.43.96-.21,1.93-.39,2.89-.53,1.96-.29,3.93-.5,5.92-.61,1-.04,2.03-.07,3.03-.07,6.28,0,12.31.96,17.98,2.78,3.39,1.11,6.67,2.5,9.78,4.17,1.03.54,2.03,1.14,3.07,1.75l17.34,10.02,7.14,4.1,45.53,26.29,155.3,89.61c51.13,29.54,51.13,103.31,0,132.81Z"/>
      <path class="cls-3" d="m153.44,435.31c0,10.67-2.18,20.83-6.14,30.07-.57,1.32-1.18,2.64-1.82,3.92-6.28,12.73-16.06,23.47-28.05,31-.11.07-.25.14-.36.21t-.07.04c-2.07,1.32-4.17,2.5-6.39,3.57v-137.62c25.37,12.52,42.82,38.63,42.82,68.81Z"/>
      <path class="cls-1" d="m110.62,366.49v137.62c-10.21,5.03-21.73,7.88-33.9,7.88-42.36,0-76.72-34.35-76.72-76.69,0-.5,0-.96.04-1.46t0-.07c.78-41.63,34.83-75.16,76.68-75.16,12.17,0,23.69,2.85,33.9,7.88Z"/>
      <path class="cls-6" d="m263.39,210.91c-20.3-11.74-45.71,2.93-45.71,26.4v165.34c0,24.65-13.17,47.41-34.51,59.71-.04.04-.07.07-.11.07l-10.56,6.06s-.04,0-.04.04l-4.75,2.75V158.22c4.53.96,9.06,2.71,13.42,5.21l4.92,2.85,30.33,17.52,1.28.75,45.71,26.36Z"/>
    </g>
  </g>
</svg>